name rise49.5252peak65.1548fall88.8305.mot
datacolumns 19
datarows 32
range 19.49992500000000 19.55158300000000
endheader
time	ground_force1_vx	ground_force1_vy	ground_force1_vz	ground_force1_px	ground_force1_py	ground_force1_pz	ground_force2_vx	ground_force2_vy	ground_force2_vz	ground_force2_px	ground_force2_py	ground_force2_pz	ground_torque1_x	ground_torque1_y	ground_torque1_z	ground_torque2_x	ground_torque2_y	ground_torque2_z	
19.49992500000000	-44.84032200000000	809.53002800000002	63.36951500000000	0.15648500000000	0.00000000000000	0.12180500000000	-9.99704600000000	44.27517900000000	9.57107900000000	0.38170000000000	0.00000000000000	-0.05771000000000	0.00000000000000	29.87411500000000	0.00000000000000	0.00000000000000	6.72816200000000	0.00000000000000	
19.50158900000000	-44.87205600000000	806.31319099999996	63.18845200000000	0.15584400000000	0.00000000000000	0.12175400000000	-10.90056300000000	50.48214800000000	10.55704000000000	0.38296100000000	0.00000000000000	-0.05865300000000	0.00000000000000	29.67352000000000	0.00000000000000	0.00000000000000	7.43830100000000	0.00000000000000	
19.50325700000000	-44.91502100000000	802.97306100000003	62.98026800000000	0.15519600000000	0.00000000000000	0.12170000000000	-11.65393300000000	56.59685800000000	11.42981000000000	0.38421600000000	0.00000000000000	-0.05953000000000	0.00000000000000	29.46904300000000	0.00000000000000	0.00000000000000	8.07434800000000	0.00000000000000	
19.50493000000000	-44.96977300000000	799.51118299999996	62.74464400000000	0.15454300000000	0.00000000000000	0.12164300000000	-12.24163500000000	62.55731900000000	12.17453200000000	0.38547600000000	0.00000000000000	-0.06034800000000	0.00000000000000	29.26099900000000	0.00000000000000	0.00000000000000	8.62616000000000	0.00000000000000	
19.50658800000000	-45.03682600000000	795.92912899999999	62.48131500000000	0.15388600000000	0.00000000000000	0.12158200000000	-12.65681000000000	68.32669600000000	12.78387500000000	0.38674900000000	0.00000000000000	-0.06111300000000	0.00000000000000	29.04970900000000	0.00000000000000	0.00000000000000	9.08872800000000	0.00000000000000	
19.50825900000000	-45.11664800000000	792.22848899999997	62.19007400000000	0.15322600000000	0.00000000000000	0.12151600000000	-12.90056600000000	73.89258599999999	13.25750600000000	0.38803900000000	0.00000000000000	-0.06183100000000	0.00000000000000	28.83549500000000	0.00000000000000	0.00000000000000	9.46182600000000	0.00000000000000	
19.50991600000000	-45.20966200000000	788.41086099999995	61.87076900000000	0.15256400000000	0.00000000000000	0.12144700000000	-12.98075600000000	79.26441100000000	13.60108300000000	0.38935100000000	0.00000000000000	-0.06250700000000	0.00000000000000	28.61868500000000	0.00000000000000	0.00000000000000	9.74931800000000	0.00000000000000	
19.51159000000000	-45.31624300000000	784.47784600000000	61.52331000000000	0.15190000000000	0.00000000000000	0.12137300000000	-12.91040800000000	84.46945500000000	13.82492200000000	0.39068600000000	0.00000000000000	-0.06314400000000	0.00000000000000	28.39960500000000	0.00000000000000	0.00000000000000	9.95826500000000	0.00000000000000	
19.51325400000000	-45.43671400000000	780.43103399999995	61.14766500000000	0.15123700000000	0.00000000000000	0.12129400000000	-12.70600500000000	89.54812200000001	13.94251500000000	0.39204700000000	0.00000000000000	-0.06374700000000	0.00000000000000	28.17858000000000	0.00000000000000	0.00000000000000	10.09791000000000	0.00000000000000	
19.51493300000000	-45.57134700000000	776.27200400000004	60.74386100000000	0.15057600000000	0.00000000000000	0.12121000000000	-12.38578400000000	94.54893600000000	13.96904900000000	0.39343400000000	0.00000000000000	-0.06431800000000	0.00000000000000	27.95593200000000	0.00000000000000	0.00000000000000	10.17866300000000	0.00000000000000	
19.51658800000000	-45.72035900000000	772.00230699999997	60.31198800000000	0.14991600000000	0.00000000000000	0.12112200000000	-11.96818100000000	99.52372900000000	13.92002900000000	0.39484500000000	0.00000000000000	-0.06486000000000	0.00000000000000	27.73198000000000	0.00000000000000	0.00000000000000	10.21116900000000	0.00000000000000	
19.51825400000000	-45.88391400000000	767.62346900000000	59.85219300000000	0.14926100000000	0.00000000000000	0.12102900000000	-11.47053600000000	104.52338300000000	13.81012700000000	0.39628100000000	0.00000000000000	-0.06537600000000	0.00000000000000	27.50703300000000	0.00000000000000	0.00000000000000	10.20550600000000	0.00000000000000	
19.51991600000000	-46.06211400000000	763.13697500000001	59.36468500000000	0.14861100000000	0.00000000000000	0.12093000000000	-10.90809400000000	109.59434899999999	13.65228000000000	0.39774000000000	0.00000000000000	-0.06586700000000	0.00000000000000	27.28139400000000	0.00000000000000	0.00000000000000	10.17055600000000	0.00000000000000	
19.52158900000000	-46.25500300000000	758.54426999999998	58.84973300000000	0.14796700000000	0.00000000000000	0.12082600000000	-10.29335300000000	114.77608499999999	13.45708000000000	0.39921900000000	0.00000000000000	-0.06633700000000	0.00000000000000	27.05535700000000	0.00000000000000	0.00000000000000	10.11358700000000	0.00000000000000	
19.52326200000000	-46.46256500000000	753.84674900000005	58.30766500000000	0.14733000000000	0.00000000000000	0.12071600000000	-9.63572600000000	120.09944500000000	13.23244600000000	0.40071700000000	0.00000000000000	-0.06678500000000	0.00000000000000	26.82920100000000	0.00000000000000	0.00000000000000	10.04000700000000	0.00000000000000	
19.52492800000000	-46.68471900000000	749.04575399999999	57.73886600000000	0.14670200000000	0.00000000000000	0.12060100000000	-8.94149400000000	125.58596500000000	12.98355500000000	0.40223000000000	0.00000000000000	-0.06721500000000	0.00000000000000	26.60319300000000	0.00000000000000	0.00000000000000	9.95330800000000	0.00000000000000	
19.52658900000000	-46.92131900000000	744.14256899999998	57.14378100000000	0.14608400000000	0.00000000000000	0.12048000000000	-8.21401200000000	131.24794399999999	12.71298800000000	0.40375700000000	0.00000000000000	-0.06762800000000	0.00000000000000	26.37758700000000	0.00000000000000	0.00000000000000	9.85515800000000	0.00000000000000	
19.52825300000000	-47.17215300000000	739.13841600000001	56.52290900000000	0.14547700000000	0.00000000000000	0.12035400000000	-7.45408900000000	137.08916500000001	12.42104600000000	0.40529300000000	0.00000000000000	-0.06802400000000	0.00000000000000	26.15261700000000	0.00000000000000	0.00000000000000	9.74561000000000	0.00000000000000	
19.52992000000000	-47.43694000000000	734.03444999999999	55.87680500000000	0.14488100000000	0.00000000000000	0.12022100000000	-6.66049000000000	143.10607899999999	12.10617100000000	0.40683600000000	0.00000000000000	-0.06840500000000	0.00000000000000	25.92850000000000	0.00000000000000	0.00000000000000	9.62338800000000	0.00000000000000	
19.53158800000000	-47.71533200000000	728.83175900000003	55.20607600000000	0.14429900000000	0.00000000000000	0.12008300000000	-5.83050900000000	149.28928800000000	11.76543700000000	0.40838200000000	0.00000000000000	-0.06877300000000	0.00000000000000	25.70543500000000	0.00000000000000	0.00000000000000	9.48622200000000	0.00000000000000	
19.53325800000000	-48.00690700000000	723.53135899999995	54.51138300000000	0.14373000000000	0.00000000000000	0.11993900000000	-4.96053400000000	155.62515400000001	11.39505000000000	0.40992800000000	0.00000000000000	-0.06912700000000	0.00000000000000	25.48360000000000	0.00000000000000	0.00000000000000	9.33119900000000	0.00000000000000	
19.53492600000000	-48.31117400000000	718.13419599999997	53.79343300000000	0.14317600000000	0.00000000000000	0.11978800000000	-4.04659200000000	162.09738999999999	10.99081900000000	0.41147100000000	0.00000000000000	-0.06946900000000	0.00000000000000	25.26315000000000	0.00000000000000	0.00000000000000	9.15509000000000	0.00000000000000	
19.53658500000000	-48.62756700000000	712.64113899999995	53.05298400000000	0.14263800000000	0.00000000000000	0.11963200000000	-3.08481500000000	168.68852699999999	10.54857600000000	0.41300700000000	0.00000000000000	-0.06980000000000	0.00000000000000	25.04421900000000	0.00000000000000	0.00000000000000	8.95465100000000	0.00000000000000	
19.53825400000000	-48.95544800000000	707.05298700000003	52.29083600000000	0.14211600000000	0.00000000000000	0.11947000000000	-2.07181900000000	175.38116099999999	10.06451700000000	0.41453300000000	0.00000000000000	-0.07012000000000	0.00000000000000	24.82691600000000	0.00000000000000	0.00000000000000	8.72686900000000	0.00000000000000	
19.53992900000000	-49.29410500000000	701.37046199999997	51.50783600000000	0.14161000000000	0.00000000000000	0.11930200000000	-1.00498200000000	182.15894599999999	9.53546100000000	0.41604600000000	0.00000000000000	-0.07043000000000	0.00000000000000	24.61132800000000	0.00000000000000	0.00000000000000	8.46914700000000	0.00000000000000	
19.54159600000000	-49.64275100000000	695.59421599999996	50.70486700000000	0.14112300000000	0.00000000000000	0.11912800000000	0.11738300000000	189.00729500000000	8.95901300000000	0.41754100000000	0.00000000000000	-0.07073100000000	0.00000000000000	24.39751600000000	0.00000000000000	0.00000000000000	8.17943600000000	0.00000000000000	
19.54325000000000	-50.00052600000000	689.72483299999999	49.88285300000000	0.14065300000000	0.00000000000000	0.11894800000000	1.29594200000000	195.91380899999999	8.33365200000000	0.41901600000000	0.00000000000000	-0.07102400000000	0.00000000000000	24.18551800000000	0.00000000000000	0.00000000000000	7.85629600000000	0.00000000000000	
19.54493100000000	-50.36649500000000	683.76282600000002	49.04275200000000	0.14020200000000	0.00000000000000	0.11876200000000	2.53035000000000	202.86843900000000	7.65874400000000	0.42046700000000	0.00000000000000	-0.07130800000000	0.00000000000000	23.97534400000000	0.00000000000000	0.00000000000000	7.49892000000000	0.00000000000000	
19.54658900000000	-50.73965200000000	677.70865100000003	48.18555600000000	0.13977000000000	0.00000000000000	0.11857100000000	3.81931400000000	209.86344900000000	6.93448500000000	0.42189100000000	0.00000000000000	-0.07158400000000	0.00000000000000	23.76698200000000	0.00000000000000	0.00000000000000	7.10710100000000	0.00000000000000	
19.54825800000000	-51.11891700000000	671.56270300000006	47.31228400000000	0.13935700000000	0.00000000000000	0.11837400000000	5.16071700000000	216.89319200000000	6.16181800000000	0.42328500000000	0.00000000000000	-0.07185300000000	0.00000000000000	23.56039500000000	0.00000000000000	0.00000000000000	6.68117900000000	0.00000000000000	
19.54991900000000	-51.50313900000000	665.32532800000001	46.42398400000000	0.13896300000000	0.00000000000000	0.11817200000000	6.55175900000000	223.95378199999999	5.34230800000000	0.42464500000000	0.00000000000000	-0.07211500000000	0.00000000000000	23.35551900000000	0.00000000000000	0.00000000000000	6.22195500000000	0.00000000000000	
19.55158300000000	-51.89109800000000	658.99683000000005	45.52172800000000	0.13858800000000	0.00000000000000	0.11796400000000	7.98912600000000	231.04269400000001	4.47800400000000	0.42597000000000	0.00000000000000	-0.07237000000000	0.00000000000000	23.15226900000000	0.00000000000000	0.00000000000000	5.73060400000000	0.00000000000000	
